<svg width="257" height="256" viewBox="0 0 257 256" fill="none" xmlns="http://www.w3.org/2000/svg">
<g clip-path="url(#clip0_37_2)">
<path d="M128.305 23.0539C162.483 23.0539 166.531 23.184 180.028 23.7998C192.508 24.3693 199.285 26.4546 203.796 28.207C209.77 30.529 214.035 33.3032 218.513 37.7821C222.992 42.261 225.767 46.5254 228.088 52.4996C229.841 57.0105 231.926 63.788 232.496 76.2674C233.112 89.765 233.242 93.813 233.242 127.991C233.242 162.168 233.112 166.216 232.496 179.713C231.926 192.193 229.841 198.971 228.088 203.482C225.767 209.456 222.992 213.72 218.513 218.199C214.035 222.678 209.77 225.452 203.796 227.774C199.285 229.527 192.508 231.612 180.028 232.181C166.533 232.797 162.485 232.927 128.305 232.927C94.1253 232.927 90.0772 232.797 76.5822 232.181C64.1023 231.612 57.3248 229.527 52.8144 227.774C46.8397 225.452 42.5753 222.678 38.0964 218.199C33.6175 213.72 30.8433 209.456 28.5218 203.482C26.7689 198.971 24.6837 192.193 24.1141 179.714C23.4983 166.216 23.3682 162.168 23.3682 127.991C23.3682 93.813 23.4983 89.765 24.1141 76.2679C24.6837 63.788 26.7689 57.0105 28.5218 52.4996C30.8433 46.5254 33.6175 42.261 38.0964 37.7821C42.5753 33.3032 46.8397 30.529 52.8144 28.207C57.3248 26.4546 64.1023 24.3693 76.5817 23.7998C90.0793 23.184 94.1273 23.0539 128.305 23.0539ZM128.305 -0.00965118C93.542 -0.00965118 89.1835 0.137697 75.5309 0.760624C61.9063 1.38253 52.6021 3.54601 44.4598 6.71044C36.0427 9.98156 28.9044 14.3583 21.7885 21.4742C14.6726 28.5901 10.2959 35.7284 7.02476 44.1455C3.86033 52.2877 1.69685 61.592 1.07494 75.2166C0.452016 88.8687 0.305176 93.2276 0.305176 127.991C0.305176 162.754 0.452016 167.113 1.07494 180.765C1.69685 194.389 3.86033 203.693 7.02476 211.836C10.2959 220.252 14.6726 227.391 21.7885 234.507C28.9044 241.623 36.0427 246 44.4598 249.271C52.6021 252.435 61.9063 254.599 75.5309 255.221C89.1835 255.844 93.542 255.99 128.305 255.99C163.068 255.99 167.427 255.844 181.079 255.221C194.704 254.599 204.008 252.435 212.15 249.271C220.567 246 227.705 241.623 234.821 234.507C241.937 227.391 246.314 220.253 249.585 211.836C252.75 203.693 254.913 194.389 255.535 180.765C256.158 167.113 256.305 162.754 256.305 127.991C256.305 93.2276 256.158 88.8687 255.535 75.2166C254.913 61.592 252.75 52.2877 249.585 44.1455C246.314 35.7284 241.937 28.5901 234.821 21.4742C227.705 14.3583 220.567 9.98156 212.15 6.71044C204.008 3.54601 194.704 1.38253 181.079 0.760624C167.427 0.137697 163.068 -0.00965118 128.305 -0.00965118ZM128.305 62.2607C92.0034 62.2607 62.575 91.6891 62.575 127.991C62.575 164.292 92.0034 193.721 128.305 193.721C164.606 193.721 194.035 164.292 194.035 127.991C194.035 91.6891 164.606 62.2607 128.305 62.2607ZM128.305 170.658C104.741 170.658 85.638 151.555 85.638 127.991C85.638 104.427 104.741 85.3237 128.305 85.3237C151.869 85.3237 170.972 104.427 170.972 127.991C170.972 151.555 151.869 170.658 128.305 170.658ZM211.992 59.6638C211.992 68.147 205.115 75.0241 196.632 75.0241C188.149 75.0241 181.271 68.147 181.271 59.6638C181.271 51.1806 188.149 44.304 196.632 44.304C205.115 44.304 211.992 51.1806 211.992 59.6638Z" fill="white"/>
</g>
<defs>
<clipPath id="clip0_37_2">
<rect width="256" height="256" fill="white" transform="translate(0.305176 -0.00965118)"/>
</clipPath>
</defs>
</svg>
